<svg id="Groupe_466" data-name="Groupe 466" xmlns="http://www.w3.org/2000/svg" xmlns:xlink="http://www.w3.org/1999/xlink" width="236.895" height="84.242" viewBox="0 0 236.895 84.242">
  <defs>
    <clipPath id="clip-path">
      <rect id="Rectangle_351" data-name="Rectangle 351" width="236.895" height="84.242"/>
    </clipPath>
  </defs>
  <g id="Groupe_297" data-name="Groupe 297" clip-path="url(#clip-path)">
    <path id="Tracé_416" data-name="Tracé 416" d="M738.732,45.25c2.983-2.353,5.433-6.208,6.932-11.16l-1.334-.4c-2.267,7.489-6.974,12.417-12.1,12.747-.207.006-.413.015-.621.015a10.635,10.635,0,0,1-7.522-3.586V4.983A10.64,10.64,0,0,1,731.611,1.4c.081,0,.162,0,.243.006,5.053.1,9.7,4.562,12.157,11.712l1.319-.454a21.538,21.538,0,0,0-6.646-10.083,22.521,22.521,0,0,1,.049,42.672m-21.1-21.328c0-6.946,1.973-13.165,5.065-17.3v34.6c-3.093-4.136-5.065-10.356-5.065-17.3m-8.666,0A22.566,22.566,0,0,1,725.014,2.347a15.924,15.924,0,0,0-2.266,2.078h-.055v.061c-3.907,4.345-6.459,11.436-6.459,19.436,0,9.494,3.591,17.713,8.78,21.575a22.566,22.566,0,0,1-16.052-21.575m46.451,0A23.947,23.947,0,0,0,732.3.021C732.1.008,731.892,0,731.686,0c-.026,0-.05,0-.076,0s-.079,0-.118,0a23.923,23.923,0,0,0,0,47.845c.04,0,.079,0,.118,0s.05,0,.076,0c.213,0,.424-.009.635-.021a23.946,23.946,0,0,0,23.094-23.9" transform="translate(-613.044)"/>
    <rect id="Rectangle_349" data-name="Rectangle 349" width="2.245" height="17.589" transform="translate(66.913 66.422)"/>
    <rect id="Rectangle_350" data-name="Rectangle 350" width="2.246" height="17.589" transform="translate(136.784 66.422)"/>
    <path id="Tracé_417" data-name="Tracé 417" d="M1114.648,506.51h6.5a6.779,6.779,0,1,1-.507-5.233l1.975-1.069a9.026,9.026,0,1,0-7.943,13.315c2.534,0,5.333-1.219,6.482-3.242v2.99h2.079v-9.015h-8.588Z" transform="translate(-957.944 -429.281)"/>
    <path id="Tracé_418" data-name="Tracé 418" d="M868.8,497.2h-2.245V514.79H879.88v-2.245H868.8Z" transform="translate(-750.791 -430.779)"/>
    <path id="Tracé_419" data-name="Tracé 419" d="M597.939,497.2h-2.245V514.79h13.324v-2.245h-11.08Z" transform="translate(-516.115 -430.779)"/>
    <path id="Tracé_420" data-name="Tracé 420" d="M345.864,502.134c0-2.748-2.85-4.936-6.351-4.936h-6.351v17.59h2.246v-7.672h2.638l5.88,7.672h2.815l-5.945-7.774c2.89-.466,5.07-2.478,5.07-4.88m-10.457,2.736V499.4h4.106c2.225,0,4.106,1.254,4.106,2.738s-1.88,2.736-4.106,2.736Z" transform="translate(-288.654 -430.777)"/>
    <path id="Tracé_421" data-name="Tracé 421" d="M172.455,506.089,167.42,497.2h-2.581l6.493,11.463v6.126h2.246v-6.126l6.474-11.463H177.49Z" transform="translate(-142.818 -430.779)"/>
    <path id="Tracé_422" data-name="Tracé 422" d="M1315.563,511.439,1304.818,497.2h-2.53V514.79h2.246V500.552l10.745,14.238h2.53V497.2h-2.246Z" transform="translate(-1128.314 -430.779)"/>
    <path id="Tracé_423" data-name="Tracé 423" d="M1480.006,497.2l-7.842,17.589h2.457l1.667-3.739h9.849l1.655,3.739h2.452l-7.781-17.589Zm-2.716,11.6,3.942-8.839,3.912,8.839Z" transform="translate(-1275.496 -430.779)"/>
    <path id="Tracé_424" data-name="Tracé 424" d="M9.014,510.957a6.768,6.768,0,1,1,5.957-9.982l1.975-1.069a9.022,9.022,0,1,0,.2,8.152l-2.028-.966a6.8,6.8,0,0,1-6.106,3.865" transform="translate(0 -429.025)"/>
    <path id="Tracé_425" data-name="Tracé 425" d="M1660.046,507.092a6.758,6.758,0,1,1-.148-6.117l1.975-1.069a9.021,9.021,0,1,0,.2,8.152Z" transform="translate(-1425.179 -429.025)"/>
  </g>
</svg>
